<?xml version="1.0" standalone="no"?>
<!DOCTYPE svg PUBLIC "-//W3C//DTD SVG 20010904//EN"
 "http://www.w3.org/TR/2001/REC-SVG-20010904/DTD/svg10.dtd">
<svg version="1.0" xmlns="http://www.w3.org/2000/svg"
 width="512.000000pt" height="512.000000pt" viewBox="0 0 512.000000 512.000000"
 preserveAspectRatio="xMidYMid meet">

<g transform="translate(0.000000,512.000000) scale(0.100000,-0.100000)"
fill="#000000" stroke="none">
<path d="M4076 4135 c-93 -49 -157 -96 -176 -127 -27 -45 -25 -106 6 -192 28
-77 47 -266 26 -266 -5 0 -13 12 -17 28 -15 64 -54 102 -219 211 -117 78 -174
110 -205 115 -115 18 -228 -69 -239 -183 -9 -98 29 -156 158 -241 44 -29 80
-55 80 -57 0 -3 -12 3 -27 13 -212 139 -397 216 -683 285 -328 80 -506 63
-698 -65 -71 -47 -209 -178 -264 -251 -39 -52 -29 -52 -227 -3 -155 37 -260
76 -370 135 -192 103 -180 98 -266 98 -61 0 -90 -5 -122 -21 l-41 -21 -96 88
c-53 48 -116 97 -139 108 -96 46 -333 53 -401 12 -66 -41 -88 -146 -43 -209
44 -63 361 -438 389 -461 49 -39 142 -72 209 -73 l60 -1 247 -204 c161 -133
270 -215 312 -236 l65 -32 201 1 200 1 28 -44 c16 -24 26 -46 23 -49 -3 -3
-69 -36 -146 -73 l-142 -68 -82 81 c-337 330 -858 336 -1201 15 -409 -382
-352 -1044 116 -1355 195 -130 462 -176 688 -118 149 38 306 131 416 245 110
116 178 240 214 390 10 45 21 83 23 85 2 2 72 -95 156 -216 83 -120 163 -228
178 -240 25 -19 39 -20 319 -20 l293 0 20 26 c27 34 27 76 0 100 -18 16 -42
20 -177 24 l-155 5 -139 198 c-76 109 -138 200 -138 202 0 3 37 5 81 5 79 0
83 -1 120 -35 121 -109 306 -127 439 -41 30 19 45 22 100 18 88 -5 168 24 227
85 l43 45 92 -22 c51 -12 132 -25 180 -28 83 -4 87 -6 83 -26 -23 -100 -36
-165 -49 -246 -9 -52 -19 -110 -22 -127 l-5 -33 -203 0 c-191 0 -205 -1 -230
-21 -34 -27 -36 -77 -3 -107 23 -21 31 -22 261 -22 269 0 280 2 315 72 11 24
21 38 21 32 0 -20 140 -163 204 -208 83 -60 190 -111 283 -138 66 -19 101 -23
223 -22 127 1 156 4 233 27 155 48 279 121 387 229 306 306 332 808 60 1147
-42 51 -49 65 -40 81 41 77 -47 173 -237 256 -86 37 -89 34 82 65 137 24 184
46 214 99 33 59 27 104 -45 322 -75 227 -130 344 -205 438 -145 179 -443 509
-473 524 -48 23 -96 20 -150 -9z m295 -365 c75 -85 149 -170 164 -188 l28 -34
-49 7 c-94 14 -91 11 -273 282 -59 89 -99 158 -95 164 8 14 25 -4 225 -231z
m-65 -287 c61 -54 115 -73 244 -85 135 -12 121 0 171 -145 l28 -83 -27 -5
c-115 -23 -195 -67 -233 -128 -20 -32 -22 -101 -5 -152 6 -18 -4 -23 -106 -53
-195 -57 -380 -147 -524 -257 -10 -7 -33 10 -86 61 -119 114 -267 204 -427
257 l-74 25 84 43 c46 23 169 79 273 126 208 92 272 130 338 201 101 107 133
202 125 366 -3 61 -8 122 -12 136 -4 14 38 -42 94 -125 56 -82 118 -164 137
-182z m-3694 65 c61 -57 155 -140 210 -185 54 -45 100 -85 101 -89 1 -4 -22
-15 -51 -25 l-52 -18 -68 82 c-285 344 -280 337 -262 337 6 0 61 -46 122 -102z
m1983 58 c239 -43 472 -118 622 -202 l63 -35 -337 -168 c-186 -93 -365 -189
-398 -213 -64 -47 -109 -98 -149 -168 l-24 -42 -223 247 c-123 136 -225 253
-227 259 -1 7 34 52 79 100 194 207 349 265 594 222z m945 -355 l35 -19 -95
-43 c-303 -138 -612 -299 -685 -356 -72 -57 -138 -141 -182 -233 l-36 -75 -77
0 c-91 0 -91 -14 -4 156 81 159 107 180 427 341 506 254 543 268 617 229z
m-1370 -476 l132 -146 -47 -99 c-28 -57 -63 -114 -85 -135 l-37 -36 -154 228
c-85 125 -162 239 -172 254 l-17 26 122 26 c68 13 124 25 125 26 0 1 60 -64
133 -144z m2270 -170 c75 -16 196 -62 243 -94 l29 -19 -198 -66 c-109 -36
-198 -65 -199 -63 -1 1 -19 54 -40 117 -21 63 -40 121 -43 128 -6 17 118 16
208 -3z m-2444 -313 l50 -77 -13 -45 c-14 -45 -19 -212 -8 -230 4 -6 -37 -10
-115 -10 -130 0 -162 -9 -196 -54 l-19 -24 -430 -20 c-243 -11 -434 -16 -439
-11 -6 5 82 53 210 114 120 58 372 179 559 269 187 90 342 164 345 165 3 0 28
-34 56 -77z m-963 -110 c37 -17 67 -35 67 -40 0 -5 -80 -47 -177 -93 -97 -46
-189 -97 -204 -112 -61 -61 -59 -164 5 -226 50 -49 78 -52 304 -40 112 6 207
8 210 4 12 -12 -41 -95 -94 -145 -30 -28 -80 -63 -111 -78 -52 -24 -70 -27
-163 -27 -97 0 -110 2 -172 32 -85 40 -151 106 -191 191 -30 62 -32 75 -32
172 0 93 3 112 27 162 30 65 95 139 153 176 111 71 258 80 378 24z m3422 -17
c61 -35 133 -118 166 -190 27 -60 41 -73 85 -79 23 -4 26 -13 26 -90 -1 -103
-6 -116 -46 -116 -36 0 -63 -23 -91 -79 -27 -54 -101 -120 -173 -154 -62 -30
-75 -32 -172 -32 -99 0 -110 2 -172 33 -179 88 -270 298 -208 481 24 71 78
158 90 144 4 -4 33 -88 64 -186 62 -194 86 -234 161 -268 112 -51 248 12 284
130 17 58 15 66 -44 254 -30 96 -55 177 -55 181 0 11 39 -3 85 -29z"/>
</g>
</svg>
