<?xml version="1.0" standalone="no"?>
<!DOCTYPE svg PUBLIC "-//W3C//DTD SVG 20010904//EN"
 "http://www.w3.org/TR/2001/REC-SVG-20010904/DTD/svg10.dtd">
<svg version="1.0" xmlns="http://www.w3.org/2000/svg"
 width="512.000000pt" height="512.000000pt" viewBox="0 0 512.000000 512.000000"
 preserveAspectRatio="xMidYMid meet">

<g transform="translate(0.000000,512.000000) scale(0.100000,-0.100000)"
fill="#000000" stroke="none">
<path d="M2425 5110 c-231 -17 -471 -86 -683 -195 -540 -279 -861 -762 -953
-1435 -17 -124 -14 -423 5 -555 21 -139 59 -294 101 -410 74 -207 113 -267
901 -1406 417 -604 761 -1098 764 -1098 3 0 345 491 760 1091 637 920 765
1112 821 1224 140 279 201 552 201 899 1 567 -205 1076 -570 1415 -234 217
-543 375 -860 441 -79 16 -342 42 -377 37 -5 0 -55 -4 -110 -8z m277 -1181
c29 -6 91 -29 137 -51 199 -95 331 -306 331 -528 0 -173 -73 -336 -202 -448
-158 -140 -382 -184 -578 -116 -103 36 -182 87 -248 159 -63 69 -95 123 -128
221 -36 106 -39 245 -7 349 43 136 148 272 268 344 116 70 289 99 427 70z"/>
</g>
</svg>
